<svg width="470" height="476" viewBox="0 0 470 476" fill="none" xmlns="http://www.w3.org/2000/svg">
<g filter="url(#filter0_d_33_44)">
<mask id="path-1-inside-1_33_44" fill="white">
<path fill-rule="evenodd" clip-rule="evenodd" d="M110.345 238.005C93.2976 253.424 82.7503 272.74 81.6483 294.081C78.8163 348.92 139.429 396.362 217.03 400.045C294.631 403.729 359.835 362.258 362.666 307.418C365.498 252.579 304.886 205.137 227.285 201.454C209.428 200.606 192.227 202.15 176.292 205.697L108.215 150.884L128.413 224.584C121.8 228.627 115.746 233.12 110.345 238.005Z"/>
</mask>
<path fill-rule="evenodd" clip-rule="evenodd" d="M110.345 238.005C93.2976 253.424 82.7503 272.74 81.6483 294.081C78.8163 348.92 139.429 396.362 217.03 400.045C294.631 403.729 359.835 362.258 362.666 307.418C365.498 252.579 304.886 205.137 227.285 201.454C209.428 200.606 192.227 202.15 176.292 205.697L108.215 150.884L128.413 224.584C121.8 228.627 115.746 233.12 110.345 238.005Z" fill="#041C32"/>
<path d="M110.345 238.005L106.746 234.35L106.746 234.35L110.345 238.005ZM217.03 400.045L217.289 395.026L217.03 400.045ZM362.666 307.418L357.429 307.17L362.666 307.418ZM176.292 205.697L172.919 209.545L174.925 211.161L177.478 210.592L176.292 205.697ZM108.215 150.884L111.587 147.036L98.95 136.861L103.143 152.161L108.215 150.884ZM128.413 224.584L131.233 228.821L134.455 226.851L133.484 223.307L128.413 224.584ZM86.8855 294.329C87.9095 274.498 97.7052 256.348 113.944 241.661L106.746 234.35C88.8901 250.5 77.5911 270.982 76.4111 293.832L86.8855 294.329ZM217.289 395.026C179.491 393.232 146.039 380.784 122.493 362.354C98.9452 343.923 85.5713 319.778 86.8855 294.329L76.4111 293.832C74.8933 323.223 90.4097 350.219 115.86 370.14C141.312 390.061 176.967 403.176 216.77 405.065L217.289 395.026ZM357.429 307.17C356.115 332.618 340.319 355.379 314.987 371.49C289.657 387.6 255.087 396.82 217.289 395.026L216.77 405.065C256.574 406.954 293.406 397.28 320.786 379.866C348.164 362.453 366.386 337.058 367.904 307.667L357.429 307.17ZM227.026 206.473C264.823 208.267 298.275 220.715 321.822 239.145C345.37 257.577 358.743 281.722 357.429 307.17L367.904 307.667C369.421 278.276 353.905 251.28 328.455 231.36C303.002 211.438 267.348 198.323 227.544 196.434L227.026 206.473ZM177.478 210.592C192.933 207.152 209.647 205.649 227.026 206.473L227.544 196.434C209.209 195.564 191.521 197.147 175.105 200.801L177.478 210.592ZM104.842 154.733L172.919 209.545L179.664 201.849L111.587 147.036L104.842 154.733ZM133.484 223.307L113.286 149.608L103.143 152.161L123.341 225.86L133.484 223.307ZM113.944 241.661C119.091 237.006 124.881 232.704 131.233 228.821L125.593 220.346C118.719 224.549 112.402 229.235 106.746 234.35L113.944 241.661Z" fill="white" mask="url(#path-1-inside-1_33_44)"/>
</g>
<path d="M119.254 268.215L118.474 254.649L118.373 254.629C118.312 254.936 118.22 255.401 118.096 256.023C117.982 256.64 117.853 257.296 117.711 257.993C117.569 258.689 117.429 259.316 117.29 259.873L115.401 267.446L112.28 266.824L116.341 250.54L121.095 251.489L121.888 264.718L121.955 264.732L129.195 253.104L133.949 254.052L129.888 270.336L126.633 269.687L128.555 261.979C128.683 261.467 128.837 260.878 129.019 260.213C129.208 259.549 129.393 258.919 129.573 258.324C129.755 257.721 129.891 257.269 129.982 256.967L129.881 256.947L122.453 268.853L119.254 268.215ZM141.56 262.609L146.668 256.589L150.431 257.339L142.487 266.196L140.906 272.533L137.436 271.841L138.989 265.615L136.034 254.468L139.819 255.223L141.56 262.609ZM178.73 262.983L170.478 278.431L166.501 277.638L166.404 268.639C166.4 268.467 166.402 268.206 166.41 267.857C166.418 267.508 166.43 267.128 166.446 266.718C166.463 266.301 166.482 265.911 166.501 265.548C166.53 265.18 166.559 264.89 166.588 264.677C166.514 264.881 166.399 265.15 166.245 265.486C166.098 265.823 165.934 266.18 165.753 266.557C165.58 266.935 165.413 267.288 165.253 267.615C165.092 267.941 164.967 268.189 164.878 268.358L160.531 276.447L156.565 275.656L156.424 258.535L159.86 259.22L159.75 268.528C159.744 268.807 159.732 269.14 159.714 269.526C159.704 269.914 159.686 270.32 159.659 270.743C159.642 271.161 159.616 271.565 159.581 271.955C159.556 272.34 159.525 272.673 159.486 272.954C159.594 272.679 159.724 272.362 159.877 272.003C160.032 271.636 160.191 271.266 160.355 270.894C160.528 270.515 160.694 270.166 160.852 269.847C161.011 269.528 161.146 269.27 161.258 269.074L165.932 260.431L169.233 261.089L169.358 270.69C169.36 270.901 169.353 271.184 169.335 271.539C169.327 271.888 169.311 272.267 169.288 272.675C169.265 273.084 169.237 273.483 169.202 273.874C169.177 274.259 169.146 274.592 169.107 274.872C169.252 274.512 169.436 274.077 169.657 273.567C169.888 273.052 170.122 272.541 170.359 272.035C170.603 271.531 170.811 271.108 170.982 270.768L175.294 262.298L178.73 262.983ZM186.228 281.572L176.742 279.68L180.803 263.397L190.289 265.289L189.583 268.118L183.59 266.922L182.698 270.498L188.275 271.61L187.569 274.439L181.993 273.327L180.945 277.526L186.939 278.721L186.228 281.572ZM193.736 265.976L198.862 266.998C201.055 267.436 202.639 268.071 203.613 268.905C204.588 269.738 204.885 270.92 204.503 272.45C204.349 273.066 204.109 273.603 203.782 274.06C203.463 274.518 203.076 274.87 202.621 275.114C202.165 275.358 201.655 275.475 201.091 275.464L201.063 275.575C201.583 275.796 202.031 276.088 202.405 276.451C202.782 276.806 203.037 277.27 203.17 277.843C203.313 278.409 203.277 279.119 203.064 279.973C202.818 280.96 202.363 281.758 201.699 282.366C201.035 282.974 200.201 283.377 199.198 283.574C198.204 283.766 197.084 283.737 195.837 283.489L189.675 282.26L193.736 265.976ZM195.62 273.122L197.648 273.526C198.662 273.728 199.403 273.712 199.871 273.478C200.341 273.237 200.653 272.808 200.807 272.192C200.962 271.568 200.841 271.076 200.442 270.716C200.052 270.35 199.358 270.067 198.359 269.868L196.523 269.502L195.62 273.122ZM194.937 275.861L193.878 280.105L196.154 280.559C197.205 280.769 197.988 280.714 198.501 280.396C199.014 280.077 199.355 279.58 199.523 278.904C199.623 278.503 199.621 278.132 199.517 277.792C199.412 277.452 199.167 277.153 198.782 276.897C198.404 276.643 197.843 276.441 197.1 276.293L194.937 275.861ZM226.904 280.974C226.447 282.808 225.708 284.271 224.687 285.361C223.675 286.445 222.419 287.165 220.919 287.521C219.421 287.869 217.726 287.854 215.833 287.477L211.17 286.547L215.231 270.263L220.401 271.294C222.129 271.639 223.551 272.242 224.669 273.104C225.788 273.959 226.549 275.05 226.951 276.377C227.355 277.697 227.339 279.229 226.904 280.974ZM223.254 280.34C223.554 279.137 223.62 278.114 223.452 277.269C223.294 276.419 222.912 275.739 222.306 275.229C221.707 274.719 220.898 274.363 219.876 274.159L218.017 273.789L215.373 284.392L216.871 284.691C218.576 285.031 219.954 284.834 221.004 284.1C222.062 283.368 222.812 282.115 223.254 280.34ZM237.734 291.845L228.248 289.953L232.309 273.669L241.795 275.561L241.089 278.39L235.096 277.195L234.204 280.77L239.781 281.882L239.075 284.711L233.499 283.599L232.452 287.798L238.445 288.993L237.734 291.845ZM258.164 278.826L248.504 293.993L244.696 293.233L243.169 275.835L246.695 276.538L247.377 286.846C247.389 287.02 247.398 287.346 247.405 287.822C247.414 288.292 247.416 288.791 247.41 289.32C247.414 289.843 247.397 290.272 247.361 290.608C247.488 290.29 247.669 289.894 247.906 289.419C248.15 288.945 248.384 288.497 248.608 288.074C248.841 287.645 249.005 287.35 249.1 287.19L254.638 278.122L258.164 278.826ZM265.672 297.417L256.187 295.525L260.248 279.241L269.733 281.133L269.028 283.962L263.035 282.767L262.143 286.342L267.719 287.454L267.014 290.283L261.437 289.171L260.39 293.37L266.383 294.566L265.672 297.417ZM269.12 298.104L273.181 281.821L276.673 282.517L273.323 295.95L280.004 297.282L279.292 300.133L269.12 298.104ZM299.151 295.524C298.838 296.779 298.395 297.891 297.822 298.86C297.251 299.822 296.55 300.609 295.719 301.223C294.895 301.838 293.942 302.248 292.858 302.453C291.776 302.65 290.563 302.615 289.218 302.347C287.874 302.079 286.759 301.65 285.873 301.06C284.989 300.463 284.317 299.728 283.856 298.857C283.403 297.987 283.147 297.005 283.089 295.91C283.031 294.815 283.16 293.636 283.475 292.374C283.895 290.688 284.539 289.277 285.405 288.141C286.282 286.998 287.388 286.198 288.724 285.739C290.061 285.281 291.626 285.231 293.421 285.589C295.209 285.945 296.591 286.583 297.568 287.503C298.552 288.424 299.166 289.568 299.409 290.933C299.659 292.301 299.573 293.831 299.151 295.524ZM287.13 293.126C286.847 294.262 286.745 295.271 286.825 296.152C286.914 297.027 287.211 297.749 287.716 298.317C288.223 298.878 288.964 299.256 289.94 299.451C290.932 299.649 291.79 299.59 292.515 299.275C293.242 298.952 293.846 298.41 294.328 297.648C294.819 296.881 295.206 295.93 295.489 294.793C295.915 293.086 295.928 291.677 295.526 290.568C295.125 289.459 294.184 288.757 292.705 288.462C291.721 288.266 290.862 288.328 290.127 288.65C289.402 288.965 288.79 289.505 288.292 290.271C287.803 291.031 287.415 291.983 287.13 293.126ZM309.85 289.134C311.976 289.558 313.414 290.32 314.164 291.421C314.916 292.514 315.095 293.851 314.701 295.433C314.523 296.146 314.244 296.807 313.863 297.417C313.484 298.02 312.984 298.524 312.362 298.93C311.748 299.338 310.995 299.608 310.102 299.742C309.211 299.869 308.165 299.812 306.963 299.572L305.465 299.273L304.02 305.065L300.528 304.369L304.589 288.085L309.85 289.134ZM308.964 291.927L307.376 291.61L306.17 296.444L307.319 296.673C307.973 296.804 308.561 296.831 309.084 296.757C309.608 296.682 310.046 296.488 310.4 296.177C310.753 295.866 311.001 295.424 311.144 294.852C311.344 294.05 311.267 293.411 310.913 292.935C310.56 292.452 309.911 292.116 308.964 291.927ZM324.501 309.15L315.016 307.258L319.077 290.974L328.562 292.866L327.857 295.695L321.863 294.5L320.972 298.075L326.548 299.187L325.843 302.016L320.266 300.904L319.219 305.103L325.212 306.298L324.501 309.15ZM336.809 294.511C338.303 294.809 339.49 295.233 340.37 295.782C341.258 296.334 341.848 297.016 342.142 297.831C342.435 298.646 342.445 299.602 342.171 300.701C341.986 301.444 341.681 302.065 341.257 302.565C340.833 303.065 340.34 303.462 339.778 303.755C339.216 304.048 338.634 304.263 338.032 304.401L341.107 312.462L337.231 311.689L334.858 304.656L332.999 304.285L331.441 310.534L327.948 309.837L332.01 293.554L336.809 294.511ZM335.855 297.29L334.796 297.079L333.699 301.479L334.826 301.703C335.982 301.934 336.856 301.909 337.446 301.63C338.045 301.344 338.438 300.83 338.623 300.087C338.815 299.315 338.682 298.712 338.223 298.277C337.771 297.844 336.982 297.515 335.855 297.29ZM119.557 305.883C119.106 305.793 118.718 305.689 118.393 305.569C118.059 305.456 117.78 305.342 117.556 305.227L118.273 302.353C118.5 302.453 118.747 302.553 119.014 302.653C119.271 302.759 119.554 302.843 119.862 302.904C120.268 302.985 120.651 302.98 121.013 302.888C121.373 302.804 121.7 302.569 121.993 302.183C122.286 301.797 122.532 301.207 122.73 300.413L126.536 285.154L130.028 285.85L126.228 301.087C125.88 302.483 125.378 303.564 124.722 304.329C124.071 305.104 123.304 305.605 122.419 305.834C121.54 306.072 120.586 306.088 119.557 305.883ZM147.098 297.778C146.785 299.033 146.342 300.145 145.77 301.114C145.199 302.076 144.498 302.864 143.667 303.478C142.843 304.093 141.889 304.503 140.805 304.708C139.723 304.905 138.51 304.869 137.166 304.601C135.821 304.333 134.706 303.904 133.821 303.315C132.937 302.717 132.265 301.983 131.804 301.112C131.351 300.242 131.095 299.259 131.037 298.164C130.979 297.069 131.107 295.891 131.422 294.628C131.843 292.943 132.486 291.532 133.353 290.395C134.229 289.253 135.336 288.452 136.672 287.994C138.008 287.535 139.574 287.485 141.369 287.843C143.156 288.2 144.538 288.838 145.515 289.758C146.5 290.679 147.113 291.822 147.356 293.188C147.606 294.555 147.521 296.085 147.098 297.778ZM135.078 295.381C134.795 296.517 134.693 297.526 134.773 298.407C134.862 299.282 135.159 300.004 135.664 300.572C136.17 301.133 136.912 301.511 137.888 301.706C138.879 301.903 139.738 301.844 140.463 301.529C141.19 301.207 141.794 300.664 142.276 299.903C142.767 299.136 143.154 298.184 143.437 297.048C143.863 295.34 143.875 293.932 143.474 292.823C143.072 291.714 142.132 291.012 140.652 290.717C139.668 290.521 138.809 290.583 138.075 290.904C137.35 291.22 136.738 291.76 136.239 292.526C135.75 293.286 135.363 294.237 135.078 295.381ZM165.943 293.013L163.315 303.55C163.035 304.671 162.531 305.634 161.802 306.44C161.082 307.239 160.15 307.802 159.004 308.127C157.866 308.453 156.531 308.464 154.999 308.158C152.821 307.724 151.298 306.843 150.431 305.517C149.563 304.19 149.356 302.621 149.807 300.809L152.424 290.317L155.905 291.011L153.419 300.98C153.084 302.324 153.127 303.322 153.547 303.975C153.968 304.628 154.723 305.063 155.812 305.28C156.578 305.433 157.23 305.427 157.768 305.261C158.313 305.097 158.766 304.767 159.127 304.269C159.487 303.772 159.772 303.104 159.981 302.265L162.462 292.319L165.943 293.013ZM174.775 294.775C176.27 295.073 177.457 295.497 178.337 296.046C179.224 296.597 179.815 297.28 180.108 298.095C180.402 298.91 180.412 299.866 180.137 300.965C179.952 301.708 179.648 302.329 179.223 302.829C178.799 303.329 178.306 303.726 177.744 304.019C177.182 304.312 176.6 304.527 175.998 304.665L179.073 312.726L175.198 311.953L172.824 304.92L170.965 304.549L169.407 310.798L165.915 310.101L169.976 293.818L174.775 294.775ZM173.822 297.554L172.763 297.343L171.665 301.743L172.792 301.967C173.949 302.198 174.822 302.173 175.412 301.894C176.012 301.608 176.404 301.094 176.589 300.351C176.782 299.579 176.648 298.976 176.189 298.541C175.737 298.108 174.948 297.779 173.822 297.554ZM195.757 316.053L191.319 315.168L187.226 301.42L187.125 301.4C187.027 301.918 186.924 302.44 186.817 302.964C186.71 303.488 186.603 304.013 186.496 304.537C186.391 305.054 186.285 305.574 186.178 306.098L184.266 313.761L181.146 313.139L185.207 296.855L189.612 297.734L193.724 311.357L193.803 311.372C193.914 310.864 194.02 310.359 194.121 309.857C194.223 309.355 194.324 308.854 194.426 308.352C194.535 307.851 194.644 307.351 194.753 306.85L196.675 299.143L199.818 299.769L195.757 316.053ZM209.4 318.774L199.914 316.882L203.975 300.599L213.461 302.49L212.755 305.319L206.762 304.124L205.87 307.699L211.447 308.812L210.741 311.641L205.165 310.528L204.118 314.727L210.111 315.923L209.4 318.774ZM220.362 310.905L225.47 304.885L229.233 305.636L221.288 314.492L219.708 320.83L216.238 320.138L217.791 313.912L214.835 302.764L218.621 303.519L220.362 310.905ZM237.299 307.245L242.425 308.267C244.618 308.704 246.202 309.34 247.176 310.173C248.151 311.007 248.448 312.189 248.066 313.718C247.913 314.334 247.672 314.871 247.345 315.328C247.026 315.787 246.639 316.138 246.184 316.383C245.729 316.627 245.219 316.743 244.654 316.732L244.626 316.844C245.146 317.064 245.594 317.356 245.969 317.719C246.345 318.075 246.6 318.539 246.733 319.111C246.876 319.677 246.84 320.387 246.628 321.241C246.381 322.229 245.926 323.027 245.262 323.635C244.598 324.243 243.764 324.646 242.761 324.843C241.767 325.035 240.647 325.006 239.4 324.757L233.238 323.528L237.299 307.245ZM239.183 314.39L241.211 314.794C242.225 314.997 242.966 314.981 243.434 314.747C243.904 314.505 244.216 314.077 244.37 313.46C244.525 312.837 244.404 312.345 244.005 311.984C243.615 311.618 242.921 311.336 241.922 311.136L240.086 310.77L239.183 314.39ZM238.5 317.13L237.441 321.374L239.717 321.827C240.768 322.037 241.551 321.983 242.064 321.664C242.577 321.345 242.918 320.848 243.086 320.173C243.186 319.772 243.184 319.401 243.08 319.061C242.975 318.72 242.73 318.422 242.345 318.166C241.967 317.911 241.406 317.71 240.663 317.561L238.5 317.13ZM258.225 328.512L248.739 326.62L252.8 310.336L262.286 312.228L261.58 315.057L255.587 313.862L254.695 317.437L260.272 318.549L259.566 321.378L253.99 320.266L252.943 324.465L258.936 325.66L258.225 328.512ZM270.205 321.302L276.739 322.605L274.634 331.048C273.7 331.158 272.746 331.205 271.772 331.19C270.8 331.168 269.724 331.039 268.545 330.804C266.908 330.477 265.598 329.881 264.616 329.015C263.633 328.148 263.001 327.032 262.719 325.667C262.437 324.301 262.522 322.708 262.976 320.889C263.402 319.181 264.101 317.77 265.073 316.654C266.052 315.54 267.266 314.769 268.713 314.34C270.168 313.913 271.819 313.884 273.666 314.252C274.537 314.426 275.374 314.69 276.177 315.045C276.979 315.4 277.689 315.795 278.305 316.23L276.456 318.761C276.016 318.408 275.494 318.082 274.891 317.782C274.288 317.482 273.633 317.262 272.927 317.121C271.913 316.919 270.973 316.973 270.107 317.284C269.249 317.596 268.51 318.127 267.889 318.876C267.278 319.619 266.833 320.551 266.553 321.673C266.288 322.735 266.2 323.707 266.287 324.589C266.376 325.465 266.678 326.199 267.192 326.793C267.708 327.379 268.473 327.773 269.487 327.975C269.983 328.074 270.405 328.135 270.754 328.158C271.113 328.175 271.448 328.187 271.762 328.195L272.609 324.798L269.488 324.176L270.205 321.302ZM278.39 332.534L282.451 316.25L285.944 316.946L281.883 333.23L278.39 332.534ZM300.64 336.971L296.201 336.086L292.108 322.338L292.007 322.318C291.909 322.836 291.807 323.358 291.7 323.882C291.593 324.406 291.486 324.93 291.379 325.455C291.273 325.972 291.167 326.492 291.06 327.016L289.149 334.679L286.028 334.057L290.089 317.773L294.494 318.652L298.606 332.275L298.685 332.29C298.796 331.782 298.902 331.277 299.004 330.775C299.105 330.273 299.207 329.771 299.308 329.269C299.417 328.769 299.527 328.268 299.636 327.768L301.558 320.061L304.701 320.687L300.64 336.971ZM315.647 335.217C315.406 336.182 314.96 336.974 314.309 337.593C313.658 338.211 312.83 338.623 311.825 338.828C310.828 339.034 309.683 339.009 308.391 338.751C307.821 338.637 307.27 338.488 306.741 338.305C306.218 338.123 305.723 337.911 305.255 337.669C304.797 337.422 304.369 337.146 303.972 336.841L304.772 333.633C305.468 334.13 306.202 334.6 306.975 335.043C307.747 335.485 308.547 335.789 309.373 335.953C309.944 336.067 310.42 336.084 310.803 336.005C311.193 335.927 311.499 335.773 311.722 335.545C311.944 335.317 312.097 335.035 312.18 334.701C312.282 334.293 312.23 333.916 312.025 333.571C311.819 333.226 311.504 332.879 311.078 332.529C310.661 332.181 310.184 331.801 309.648 331.39C309.309 331.135 308.946 330.837 308.558 330.495C308.172 330.145 307.823 329.744 307.51 329.292C307.197 328.84 306.975 328.324 306.844 327.744C306.722 327.159 306.753 326.494 306.938 325.752C307.181 324.779 307.614 323.993 308.236 323.392C308.859 322.791 309.633 322.392 310.557 322.194C311.491 321.991 312.529 322.003 313.67 322.231C314.526 322.402 315.316 322.664 316.04 323.019C316.773 323.368 317.517 323.813 318.273 324.353L316.477 326.813C315.795 326.357 315.173 325.987 314.613 325.704C314.055 325.414 313.464 325.206 312.841 325.082C312.405 324.995 312.016 324.991 311.673 325.071C311.332 325.143 311.051 325.29 310.83 325.511C310.611 325.725 310.461 325.995 310.38 326.321C310.283 326.707 310.314 327.057 310.473 327.369C310.641 327.675 310.924 327.997 311.321 328.333C311.725 328.671 312.232 329.072 312.842 329.537C313.585 330.098 314.199 330.653 314.685 331.202C315.18 331.745 315.517 332.338 315.696 332.982C315.876 333.618 315.86 334.363 315.647 335.217ZM186.338 346.755L174.825 344.459L175.422 342.064L180.587 338.756C181.632 338.076 182.476 337.504 183.12 337.04C183.774 336.57 184.271 336.124 184.613 335.701C184.963 335.28 185.204 334.802 185.337 334.267C185.498 333.621 185.435 333.102 185.146 332.709C184.867 332.31 184.424 332.05 183.815 331.929C183.177 331.802 182.521 331.823 181.848 331.993C181.175 332.162 180.445 332.449 179.659 332.854L178.319 330.26C178.892 329.953 179.486 329.674 180.1 329.423C180.723 329.173 181.41 329.01 182.162 328.933C182.923 328.852 183.796 328.909 184.78 329.105C185.861 329.321 186.741 329.699 187.418 330.239C188.103 330.781 188.572 331.428 188.826 332.18C189.082 332.925 189.105 333.717 188.896 334.556C188.672 335.454 188.287 336.239 187.741 336.909C187.196 337.58 186.487 338.21 185.614 338.8C184.749 339.392 183.722 340.032 182.533 340.723L179.923 342.272L179.884 342.428L187.061 343.859L186.338 346.755ZM201.482 341.228C201.154 342.543 200.757 343.695 200.289 344.685C199.829 345.677 199.28 346.487 198.642 347.116C198.012 347.746 197.281 348.177 196.451 348.409C195.62 348.641 194.679 348.652 193.628 348.443C192.306 348.179 191.303 347.632 190.619 346.802C189.937 345.964 189.549 344.881 189.455 343.553C189.362 342.217 189.533 340.677 189.969 338.932C190.408 337.172 190.967 335.705 191.646 334.531C192.334 333.351 193.182 332.511 194.19 332.011C195.198 331.51 196.404 331.4 197.808 331.68C199.123 331.942 200.121 332.492 200.803 333.329C201.494 334.161 201.89 335.245 201.99 336.583C202.092 337.913 201.923 339.461 201.482 341.228ZM193.427 339.622C193.118 340.862 192.927 341.911 192.855 342.77C192.792 343.622 192.874 344.29 193.101 344.771C193.328 345.253 193.734 345.552 194.32 345.669C194.898 345.785 195.403 345.671 195.836 345.328C196.277 344.98 196.672 344.408 197.02 343.612C197.371 342.809 197.701 341.784 198.012 340.536C198.322 339.296 198.508 338.246 198.573 337.386C198.638 336.526 198.553 335.854 198.319 335.371C198.094 334.882 197.692 334.58 197.114 334.464C196.528 334.348 196.017 334.468 195.581 334.825C195.147 335.175 194.755 335.752 194.405 336.555C194.062 337.359 193.736 338.382 193.427 339.622ZM212.745 352.021L201.231 349.725L201.829 347.33L206.994 344.023C208.038 343.343 208.883 342.771 209.527 342.307C210.18 341.837 210.678 341.39 211.02 340.967C211.369 340.546 211.611 340.068 211.744 339.534C211.905 338.888 211.841 338.368 211.553 337.975C211.274 337.577 210.83 337.317 210.222 337.196C209.584 337.068 208.928 337.089 208.255 337.259C207.582 337.429 206.852 337.716 206.065 338.12L204.725 335.526C205.298 335.22 205.892 334.941 206.507 334.689C207.129 334.439 207.816 334.276 208.568 334.2C209.33 334.118 210.203 334.175 211.186 334.371C212.268 334.587 213.147 334.965 213.825 335.506C214.509 336.047 214.979 336.694 215.233 337.447C215.488 338.191 215.512 338.983 215.302 339.822C215.078 340.721 214.693 341.505 214.148 342.176C213.602 342.847 212.893 343.477 212.021 344.067C211.156 344.658 210.129 345.299 208.939 345.989L206.33 347.538L206.291 347.694L213.467 349.126L212.745 352.021ZM223.042 354.075L219.561 353.381L221.911 343.958C221.975 343.698 222.059 343.38 222.161 343.002C222.265 342.618 222.374 342.226 222.489 341.829C222.606 341.423 222.712 341.059 222.809 340.735C222.702 340.815 222.492 340.948 222.177 341.135C221.872 341.316 221.587 341.477 221.323 341.619L219.055 342.746L217.894 340.339L224.241 337.221L227.103 337.791L223.042 354.075ZM228.43 353.478C228.604 352.78 228.917 352.328 229.371 352.122C229.832 351.918 230.336 351.87 230.884 351.98C231.418 352.086 231.841 352.318 232.153 352.677C232.473 353.037 232.547 353.566 232.372 354.264C232.206 354.932 231.89 355.376 231.426 355.595C230.968 355.816 230.473 355.873 229.94 355.766C229.392 355.657 228.959 355.415 228.643 355.04C228.334 354.667 228.263 354.146 228.43 353.478ZM235.009 354.79C235.183 354.092 235.496 353.64 235.95 353.434C236.411 353.23 236.915 353.182 237.464 353.292C237.997 353.398 238.42 353.631 238.732 353.989C239.053 354.349 239.126 354.878 238.952 355.576C238.785 356.244 238.469 356.688 238.005 356.907C237.548 357.128 237.052 357.185 236.519 357.079C235.971 356.969 235.539 356.727 235.222 356.352C234.913 355.979 234.842 355.458 235.009 354.79ZM241.588 356.102C241.762 355.404 242.076 354.952 242.529 354.746C242.99 354.542 243.494 354.495 244.043 354.604C244.576 354.71 244.999 354.943 245.311 355.301C245.632 355.661 245.705 356.19 245.531 356.888C245.364 357.557 245.048 358 244.584 358.219C244.127 358.44 243.631 358.497 243.098 358.391C242.55 358.281 242.118 358.039 241.801 357.664C241.492 357.291 241.421 356.77 241.588 356.102Z" fill="white"/>
<g filter="url(#filter1_d_33_44)">
<mask id="path-4-inside-2_33_44" fill="white">
<path fill-rule="evenodd" clip-rule="evenodd" d="M192.387 161.352C185.993 179.12 186.398 197.415 195.06 213.758C217.318 255.755 285.667 268.959 347.723 243.25C409.779 217.541 442.042 162.654 419.784 120.657C397.526 78.6596 329.177 65.4556 267.121 91.1648C252.841 97.081 240.138 104.542 229.314 113.036L151.866 97.0649L200.465 144.702C197.121 150.146 194.413 155.723 192.387 161.352Z"/>
</mask>
<path fill-rule="evenodd" clip-rule="evenodd" d="M192.387 161.352C185.993 179.12 186.398 197.415 195.06 213.758C217.318 255.755 285.667 268.959 347.723 243.25C409.779 217.541 442.042 162.654 419.784 120.657C397.526 78.6596 329.177 65.4556 267.121 91.1648C252.841 97.081 240.138 104.542 229.314 113.036L151.866 97.0649L200.465 144.702C197.121 150.146 194.413 155.723 192.387 161.352Z" fill="#041C32"/>
<path d="M192.387 161.352L197.161 163.095L197.161 163.095L192.387 161.352ZM419.784 120.657L424.26 118.802L424.26 118.802L419.784 120.657ZM229.314 113.036L228.535 117.609L230.91 118.099L232.691 116.701L229.314 113.036ZM151.866 97.0649L152.646 92.4921L137.254 89.3181L148.334 100.179L151.866 97.0649ZM200.465 144.702L204.865 147.224L206.699 144.237L203.997 141.588L200.465 144.702ZM199.536 211.903C191.597 196.923 191.097 179.945 197.161 163.095L187.613 159.609C180.889 178.294 181.2 197.907 190.584 215.612L199.536 211.903ZM345.442 238.946C315.226 251.465 283.664 254.424 257.179 249.307C230.677 244.188 209.722 231.123 199.536 211.903L190.584 215.612C202.655 238.39 227.004 252.926 255.755 258.48C284.524 264.038 318.165 260.744 350.004 247.553L345.442 238.946ZM415.308 122.511C425.494 141.731 423.439 164.328 410.929 185.61C398.428 206.878 375.659 226.428 345.442 238.946L350.004 247.553C381.843 234.362 406.233 213.614 419.813 190.513C433.384 167.424 436.332 141.579 424.26 118.802L415.308 122.511ZM269.401 95.4682C299.618 82.9497 331.18 79.9909 357.665 85.1073C384.167 90.227 405.121 103.291 415.308 122.511L424.26 118.802C412.189 96.0249 387.84 81.4887 359.088 75.9344C330.32 70.3769 296.679 73.6707 264.84 86.8614L269.401 95.4682ZM232.691 116.701C243.178 108.471 255.511 101.223 269.401 95.4682L264.84 86.8614C250.17 92.939 237.098 100.613 225.938 109.371L232.691 116.701ZM151.086 101.638L228.535 117.609L230.094 108.463L152.646 92.4921L151.086 101.638ZM203.997 141.588L155.398 93.9513L148.334 100.179L196.933 147.815L203.997 141.588ZM197.161 163.095C199.082 157.756 201.661 152.439 204.865 147.224L196.066 142.18C192.581 147.854 189.743 153.69 187.613 159.609L197.161 163.095Z" fill="white" mask="url(#path-4-inside-2_33_44)"/>
</g>
<path d="M220.935 167.607L216.269 152.454L219.523 151.62L224.189 166.772L220.935 167.607ZM247.821 144.359L248.582 160.514L244.877 161.465L240.348 154.038C240.259 153.897 240.132 153.68 239.966 153.387C239.8 153.094 239.623 152.774 239.433 152.427C239.241 152.074 239.063 151.743 238.901 151.435C238.742 151.117 238.623 150.865 238.542 150.676C238.581 150.875 238.619 151.145 238.656 151.486C238.7 151.825 238.74 152.188 238.776 152.574C238.818 152.958 238.854 153.318 238.882 153.654C238.91 153.989 238.928 154.246 238.937 154.422L239.314 162.892L235.62 163.84L227.038 149.691L230.24 148.87L234.749 156.637C234.882 156.872 235.036 157.153 235.213 157.48C235.396 157.806 235.581 158.15 235.768 158.512C235.96 158.865 236.138 159.211 236.303 159.549C236.472 159.878 236.61 160.167 236.717 160.416C236.671 160.144 236.623 159.829 236.573 159.469C236.52 159.102 236.47 158.731 236.422 158.355C236.379 157.971 236.345 157.615 236.319 157.286C236.294 156.957 236.279 156.689 236.275 156.481L235.897 147.419L238.972 146.63L243.822 154.545C243.929 154.718 244.062 154.956 244.223 155.258C244.389 155.551 244.563 155.872 244.746 156.22C244.928 156.568 245.102 156.911 245.267 157.249C245.436 157.579 245.574 157.868 245.681 158.116C245.623 157.758 245.561 157.323 245.494 156.811C245.432 156.29 245.374 155.772 245.321 155.256C245.275 154.738 245.239 154.304 245.214 153.953L244.619 145.181L247.821 144.359ZM263.812 156.607L261.589 153.285L255.995 154.721L255.993 158.613L252.487 159.512L253.218 142.908L257.196 141.887L267.318 155.707L263.812 156.607ZM259.983 150.79L257.785 147.551C257.642 147.334 257.455 147.058 257.224 146.722C256.997 146.378 256.765 146.031 256.529 145.681C256.298 145.323 256.104 145.011 255.947 144.746C255.964 145.047 255.975 145.425 255.979 145.879C255.987 146.324 255.993 146.747 255.996 147.149C255.999 147.551 256 147.838 256 148.009L255.983 151.816L259.983 150.79ZM282.873 151.716L278.738 152.777L268.532 143.027L268.438 143.051C268.613 143.521 268.785 143.995 268.955 144.473C269.125 144.951 269.295 145.429 269.465 145.908C269.633 146.379 269.802 146.854 269.971 147.332L272.167 154.463L269.26 155.209L264.594 140.056L268.698 139.003L278.858 148.642L278.931 148.623C278.772 148.157 278.611 147.695 278.448 147.238C278.284 146.78 278.121 146.323 277.957 145.865C277.801 145.406 277.644 144.946 277.487 144.487L275.279 137.315L278.207 136.563L282.873 151.716ZM300.36 147.23L296.225 148.291L286.019 138.54L285.925 138.565C286.099 139.034 286.272 139.508 286.442 139.986C286.612 140.465 286.782 140.943 286.952 141.421C287.119 141.893 287.288 142.367 287.458 142.846L289.654 149.977L286.747 150.722L282.08 135.57L286.184 134.517L296.344 144.156L296.418 144.137C296.259 143.671 296.098 143.209 295.934 142.751C295.771 142.294 295.607 141.836 295.444 141.378C295.287 140.919 295.131 140.46 294.974 140L292.766 132.828L295.694 132.077L300.36 147.23ZM313.627 143.826L311.404 140.504L305.81 141.94L305.808 145.832L302.302 146.732L303.033 130.127L307.011 129.106L317.133 142.926L313.627 143.826ZM309.798 138.009L307.6 134.771C307.457 134.554 307.27 134.277 307.039 133.942C306.812 133.597 306.58 133.25 306.344 132.901C306.113 132.542 305.919 132.231 305.762 131.965C305.779 132.267 305.79 132.644 305.794 133.098C305.802 133.543 305.808 133.966 305.811 134.368C305.814 134.77 305.815 135.057 305.815 135.228L305.798 139.035L309.798 138.009ZM330.579 139.477L327.325 140.312L323.482 127.833L319.315 128.902L318.492 126.228L330.08 123.255L330.903 125.929L326.736 126.998L330.579 139.477ZM348.696 126.631C349.056 127.799 349.237 128.901 349.239 129.936C349.238 130.965 349.044 131.902 348.655 132.748C348.273 133.591 347.681 134.317 346.879 134.926C346.075 135.527 345.047 135.988 343.794 136.31C342.542 136.631 341.401 136.726 340.371 136.595C339.34 136.457 338.417 136.12 337.602 135.583C336.795 135.045 336.096 134.333 335.506 133.448C334.917 132.563 334.441 131.533 334.079 130.359C333.596 128.79 333.435 127.359 333.595 126.066C333.761 124.763 334.287 123.652 335.173 122.731C336.06 121.81 337.34 121.135 339.012 120.706C340.677 120.279 342.144 120.249 343.413 120.617C344.688 120.983 345.765 121.683 346.642 122.718C347.527 123.751 348.211 125.056 348.696 126.631ZM337.497 129.504C337.822 130.562 338.236 131.44 338.738 132.138C339.245 132.828 339.85 133.307 340.551 133.574C341.25 133.835 342.055 133.848 342.965 133.615C343.888 133.378 344.574 132.982 345.022 132.427C345.469 131.865 345.704 131.171 345.729 130.345C345.759 129.51 345.611 128.563 345.285 127.506C344.796 125.917 344.11 124.744 343.227 123.986C342.344 123.228 341.214 123.026 339.835 123.38C338.919 123.615 338.234 124.014 337.781 124.578C337.332 125.133 337.09 125.829 337.053 126.666C337.021 127.494 337.169 128.44 337.497 129.504ZM355.134 116.827L359.91 115.601C361.953 115.077 363.587 114.964 364.811 115.261C366.035 115.558 366.866 116.419 367.304 117.842C367.481 118.416 367.546 118.958 367.5 119.469C367.46 119.979 367.312 120.427 367.053 120.814C366.795 121.201 366.428 121.504 365.951 121.723L365.983 121.827C366.526 121.799 367.043 121.86 367.535 122.01C368.024 122.153 368.466 122.435 368.86 122.856C369.258 123.268 369.58 123.871 369.825 124.666C370.108 125.585 370.123 126.431 369.87 127.204C369.618 127.977 369.122 128.648 368.384 129.218C367.651 129.779 366.703 130.208 365.542 130.506L359.8 131.98L355.134 116.827ZM360.236 121.993L362.125 121.508C363.07 121.266 363.679 120.953 363.954 120.569C364.226 120.179 364.274 119.697 364.098 119.123C363.919 118.543 363.574 118.184 363.064 118.047C362.558 117.9 361.84 117.947 360.909 118.185L359.199 118.624L360.236 121.993ZM361.021 124.543L362.237 128.491L364.357 127.947C365.337 127.696 365.962 127.334 366.232 126.863C366.502 126.391 366.54 125.84 366.346 125.212C366.231 124.839 366.046 124.532 365.791 124.292C365.536 124.051 365.184 123.903 364.737 123.846C364.296 123.788 363.729 123.848 363.036 124.025L361.021 124.543ZM383.081 126.007L374.243 128.274L369.577 113.121L378.415 110.854L379.225 113.486L373.641 114.919L374.666 118.246L379.861 116.913L380.672 119.545L375.476 120.878L376.68 124.786L382.264 123.353L383.081 126.007ZM248.924 191.377L246.701 188.056L241.106 189.491L241.104 193.383L237.599 194.283L238.329 177.678L242.307 176.657L252.43 190.478L248.924 191.377ZM245.094 185.56L242.896 182.322C242.754 182.105 242.567 181.828 242.335 181.493C242.108 181.148 241.877 180.801 241.641 180.452C241.41 180.094 241.216 179.782 241.059 179.516C241.076 179.818 241.086 180.195 241.09 180.649C241.099 181.094 241.105 181.518 241.108 181.919C241.111 182.321 241.112 182.608 241.112 182.779L241.095 186.586L245.094 185.56ZM263.157 187.725L259.955 188.547L255.289 173.394L264.085 171.137L264.896 173.77L259.301 175.205L260.505 179.112L265.711 177.777L266.518 180.399L261.312 181.735L263.157 187.725ZM271.558 169.22C272.951 168.862 274.15 168.734 275.154 168.834C276.166 168.932 276.996 169.26 277.643 169.817C278.29 170.374 278.771 171.164 279.086 172.187C279.299 172.878 279.352 173.516 279.246 174.103C279.139 174.689 278.925 175.218 278.602 175.688C278.278 176.159 277.9 176.573 277.466 176.93L284.013 182.374L280.402 183.301L274.948 178.426L273.217 178.871L275.007 184.685L271.753 185.52L267.087 170.367L271.558 169.22ZM272.138 171.912L271.152 172.165L272.412 176.259L273.462 175.989C274.539 175.713 275.255 175.339 275.608 174.868C275.966 174.389 276.039 173.803 275.826 173.113C275.605 172.394 275.196 171.947 274.598 171.772C274.008 171.596 273.188 171.642 272.138 171.912ZM297.533 170.708C297.893 171.876 298.073 172.978 298.075 174.014C298.075 175.043 297.88 175.98 297.491 176.825C297.109 177.669 296.517 178.395 295.716 179.003C294.912 179.604 293.884 180.066 292.631 180.387C291.378 180.708 290.237 180.803 289.208 180.672C288.176 180.535 287.253 180.197 286.439 179.661C285.631 179.122 284.933 178.411 284.343 177.526C283.753 176.641 283.278 175.611 282.916 174.436C282.433 172.868 282.272 171.437 282.432 170.143C282.597 168.84 283.123 167.729 284.01 166.808C284.897 165.887 286.176 165.212 287.849 164.783C289.514 164.356 290.981 164.326 292.249 164.694C293.525 165.06 294.601 165.761 295.479 166.795C296.363 167.829 297.048 169.133 297.533 170.708ZM286.334 173.582C286.659 174.639 287.073 175.517 287.575 176.215C288.082 176.906 288.686 177.384 289.388 177.652C290.087 177.912 290.892 177.926 291.801 177.692C292.725 177.455 293.411 177.059 293.859 176.504C294.305 175.943 294.541 175.248 294.566 174.422C294.595 173.587 294.447 172.641 294.122 171.583C293.632 169.994 292.946 168.821 292.064 168.063C291.181 167.305 290.051 167.103 288.672 167.457C287.755 167.692 287.07 168.092 286.617 168.655C286.169 169.21 285.927 169.906 285.89 170.743C285.858 171.571 286.006 172.518 286.334 173.582ZM316.666 173.997L312.531 175.058L302.325 165.307L302.231 165.332C302.406 165.801 302.578 166.275 302.748 166.753C302.918 167.232 303.088 167.71 303.258 168.188C303.426 168.66 303.595 169.134 303.765 169.613L305.96 176.743L303.053 177.489L298.387 162.337L302.491 161.284L312.651 170.923L312.724 170.904C312.565 170.438 312.404 169.976 312.241 169.518C312.077 169.061 311.914 168.603 311.75 168.145C311.594 167.686 311.437 167.227 311.28 166.767L309.072 159.595L312 158.844L316.666 173.997ZM326.459 171.484L323.206 172.319L319.363 159.84L315.196 160.909L314.372 158.235L325.96 155.262L326.784 157.936L322.617 159.005L326.459 171.484ZM330.344 165.746L329.546 163.155L335.182 161.709L335.98 164.3L330.344 165.746ZM348.753 165.764L339.916 168.032L335.249 152.879L344.087 150.611L344.898 153.244L339.314 154.677L340.338 158.004L345.534 156.671L346.345 159.303L341.149 160.636L342.352 164.544L347.936 163.111L348.753 165.764ZM365.579 161.447L361.443 162.508L351.238 152.758L351.143 152.782C351.318 153.252 351.49 153.726 351.66 154.204C351.83 154.682 352 155.161 352.17 155.639C352.338 156.11 352.507 156.585 352.677 157.064L354.873 164.194L351.965 164.94L347.299 149.787L351.403 148.734L361.563 158.374L361.636 158.355C361.478 157.888 361.317 157.426 361.153 156.969C360.99 156.511 360.826 156.054 360.662 155.596C360.506 155.137 360.349 154.678 360.193 154.218L357.984 147.046L360.913 146.295L365.579 161.447ZM379.806 149.466C380.332 151.172 380.439 152.684 380.127 154.002C379.82 155.311 379.13 156.416 378.056 157.318C376.98 158.213 375.561 158.886 373.797 159.339L369.452 160.454L364.786 145.301L369.604 144.065C371.213 143.652 372.696 143.577 374.053 143.84C375.408 144.097 376.581 144.694 377.572 145.633C378.561 146.564 379.306 147.842 379.806 149.466ZM376.452 150.416C376.107 149.296 375.656 148.42 375.099 147.788C374.547 147.147 373.892 146.737 373.135 146.559C372.385 146.378 371.534 146.41 370.582 146.654L368.85 147.099L371.889 156.966L373.285 156.607C374.873 156.2 375.923 155.479 376.436 154.446C376.955 153.411 376.96 152.067 376.452 150.416ZM260.942 210.912C261.468 212.619 261.575 214.131 261.263 215.449C260.957 216.758 260.266 217.863 259.192 218.765C258.117 219.66 256.697 220.333 254.933 220.786L250.588 221.901L245.922 206.748L250.74 205.512C252.349 205.099 253.832 205.024 255.189 205.287C256.544 205.543 257.717 206.141 258.709 207.079C259.698 208.011 260.442 209.289 260.942 210.912ZM257.588 211.863C257.243 210.743 256.792 209.867 256.235 209.235C255.683 208.594 255.028 208.184 254.271 208.005C253.521 207.825 252.67 207.857 251.718 208.101L249.986 208.545L253.025 218.412L254.421 218.054C256.009 217.647 257.06 216.926 257.572 215.893C258.091 214.857 258.096 213.514 257.588 211.863ZM275.338 215.551L266.5 217.818L261.834 202.665L270.672 200.398L271.483 203.03L265.899 204.463L266.923 207.79L272.119 206.457L272.929 209.089L267.734 210.423L268.937 214.33L274.521 212.897L275.338 215.551ZM285.923 196.485L285.372 212.976L281.825 213.886L271.952 200.069L275.238 199.226L280.901 207.503C280.997 207.642 281.166 207.908 281.407 208.301C281.647 208.687 281.895 209.1 282.152 209.542C282.413 209.974 282.612 210.337 282.747 210.63C282.696 210.315 282.651 209.913 282.614 209.423C282.583 208.931 282.556 208.465 282.534 208.023C282.516 207.573 282.507 207.262 282.507 207.091L282.638 197.328L285.923 196.485ZM301.369 208.872L292.531 211.14L287.865 195.987L296.703 193.719L297.513 196.352L291.929 197.784L292.954 201.111L298.149 199.778L298.96 202.411L293.764 203.744L294.968 207.651L300.552 206.219L301.369 208.872ZM304.581 208.048L299.914 192.895L303.168 192.06L307.017 204.56L313.242 202.963L314.059 205.616L304.581 208.048ZM328.324 193.759C328.684 194.927 328.864 196.028 328.866 197.064C328.866 198.093 328.671 199.03 328.282 199.876C327.9 200.719 327.309 201.445 326.507 202.053C325.703 202.655 324.675 203.116 323.422 203.438C322.17 203.759 321.029 203.854 319.999 203.723C318.968 203.585 318.045 203.248 317.23 202.711C316.422 202.173 315.724 201.461 315.134 200.576C314.544 199.691 314.069 198.661 313.707 197.487C313.224 195.918 313.063 194.487 313.223 193.193C313.388 191.891 313.914 190.779 314.801 189.859C315.688 188.938 316.967 188.263 318.64 187.834C320.305 187.406 321.772 187.377 323.041 187.745C324.316 188.111 325.392 188.811 326.27 189.846C327.154 190.879 327.839 192.183 328.324 193.759ZM317.125 196.632C317.45 197.689 317.864 198.567 318.366 199.266C318.873 199.956 319.477 200.435 320.179 200.702C320.878 200.963 321.683 200.976 322.592 200.743C323.516 200.506 324.202 200.11 324.65 199.555C325.096 198.993 325.332 198.299 325.357 197.473C325.386 196.637 325.238 195.691 324.913 194.634C324.424 193.045 323.738 191.871 322.855 191.114C321.972 190.356 320.842 190.154 319.463 190.508C318.546 190.743 317.862 191.142 317.408 191.706C316.96 192.261 316.718 192.957 316.681 193.794C316.649 194.622 316.797 195.568 317.125 196.632ZM334.08 184.13C336.06 183.622 337.635 183.672 338.804 184.282C339.971 184.885 340.781 185.922 341.234 187.393C341.439 188.057 341.533 188.719 341.517 189.379C341.499 190.032 341.332 190.653 341.015 191.241C340.705 191.828 340.211 192.357 339.533 192.829C338.853 193.294 337.954 193.67 336.834 193.958L335.438 194.316L337.098 199.705L333.844 200.54L329.178 185.387L334.08 184.13ZM334.722 186.805L333.242 187.185L334.627 191.683L335.698 191.408C336.307 191.252 336.811 191.037 337.21 190.763C337.609 190.49 337.878 190.152 338.019 189.751C338.16 189.349 338.148 188.882 337.984 188.35C337.754 187.604 337.374 187.105 336.844 186.854C336.311 186.595 335.604 186.579 334.722 186.805ZM356.18 194.809L347.342 197.077L342.676 181.924L351.514 179.657L352.324 182.289L346.74 183.722L347.765 187.049L352.961 185.716L353.771 188.348L348.576 189.681L349.779 193.589L355.363 192.156L356.18 194.809ZM359.197 177.685C360.589 177.328 361.788 177.199 362.793 177.3C363.805 177.398 364.634 177.726 365.282 178.283C365.929 178.84 366.41 179.63 366.725 180.652C366.937 181.343 366.991 181.982 366.884 182.568C366.778 183.155 366.563 183.683 366.24 184.154C365.917 184.625 365.539 185.039 365.105 185.396L371.651 190.84L368.041 191.766L362.587 186.892L360.855 187.336L362.646 193.151L359.392 193.985L354.726 178.833L359.197 177.685ZM359.777 180.377L358.79 180.63L360.051 184.724L361.1 184.455C362.178 184.178 362.893 183.805 363.247 183.334C363.605 182.854 363.678 182.269 363.465 181.578C363.244 180.859 362.834 180.413 362.237 180.238C361.646 180.061 360.826 180.108 359.777 180.377ZM372.423 189.043C372.223 188.393 372.261 187.891 372.537 187.537C372.82 187.181 373.217 186.938 373.728 186.807C374.225 186.679 374.692 186.701 375.13 186.872C375.574 187.041 375.897 187.451 376.097 188.1C376.288 188.722 376.245 189.218 375.966 189.588C375.694 189.956 375.31 190.203 374.813 190.331C374.302 190.462 373.822 190.436 373.373 190.253C372.931 190.068 372.614 189.665 372.423 189.043ZM378.553 187.47C378.353 186.821 378.391 186.319 378.667 185.965C378.95 185.609 379.347 185.365 379.858 185.234C380.354 185.107 380.822 185.129 381.259 185.3C381.704 185.469 382.026 185.878 382.226 186.528C382.418 187.149 382.374 187.645 382.096 188.015C381.824 188.383 381.44 188.631 380.943 188.758C380.432 188.889 379.952 188.863 379.503 188.68C379.061 188.495 378.744 188.092 378.553 187.47ZM384.683 185.897C384.483 185.248 384.521 184.746 384.797 184.392C385.08 184.036 385.477 183.793 385.987 183.662C386.484 183.534 386.951 183.556 387.389 183.727C387.834 183.896 388.156 184.305 388.356 184.955C388.548 185.577 388.504 186.073 388.225 186.442C387.954 186.81 387.569 187.058 387.072 187.185C386.562 187.317 386.082 187.291 385.633 187.107C385.191 186.923 384.874 186.519 384.683 185.897Z" fill="white"/>
<defs>
<filter id="filter0_d_33_44" x="78.6131" y="150.884" width="287.089" height="255.268" filterUnits="userSpaceOnUse" color-interpolation-filters="sRGB">
<feFlood flood-opacity="0" result="BackgroundImageFix"/>
<feColorMatrix in="SourceAlpha" type="matrix" values="0 0 0 0 0 0 0 0 0 0 0 0 0 0 0 0 0 0 127 0" result="hardAlpha"/>
<feOffset dy="2.93983"/>
<feGaussianBlur stdDeviation="1.46991"/>
<feComposite in2="hardAlpha" operator="out"/>
<feColorMatrix type="matrix" values="0 0 0 0 0 0 0 0 0 0 0 0 0 0 0 0 0 0 0.25 0"/>
<feBlend mode="normal" in2="BackgroundImageFix" result="effect1_dropShadow_33_44"/>
<feBlend mode="normal" in="SourceGraphic" in2="effect1_dropShadow_33_44" result="shape"/>
</filter>
<filter id="filter1_d_33_44" x="149.091" y="78.035" width="280.509" height="183.894" filterUnits="userSpaceOnUse" color-interpolation-filters="sRGB">
<feFlood flood-opacity="0" result="BackgroundImageFix"/>
<feColorMatrix in="SourceAlpha" type="matrix" values="0 0 0 0 0 0 0 0 0 0 0 0 0 0 0 0 0 0 127 0" result="hardAlpha"/>
<feOffset dy="2.77501"/>
<feGaussianBlur stdDeviation="1.3875"/>
<feComposite in2="hardAlpha" operator="out"/>
<feColorMatrix type="matrix" values="0 0 0 0 0 0 0 0 0 0 0 0 0 0 0 0 0 0 0.25 0"/>
<feBlend mode="normal" in2="BackgroundImageFix" result="effect1_dropShadow_33_44"/>
<feBlend mode="normal" in="SourceGraphic" in2="effect1_dropShadow_33_44" result="shape"/>
</filter>
</defs>
</svg>
