<svg width="337" height="343" viewBox="0 0 337 343" fill="none" xmlns="http://www.w3.org/2000/svg">
<path d="M0 292.064C0 276.6 12.536 264.064 28 264.064H63.3517C78.8157 264.064 91.3517 276.6 91.3517 292.064V314.999C91.3517 330.463 78.8157 342.999 63.3517 342.999H28C12.536 342.999 0 330.463 0 314.999V292.064Z" fill="#041C32"/>
<g filter="url(#filter0_d_33_23)">
<mask id="path-2-inside-1_33_23" fill="white">
<path fill-rule="evenodd" clip-rule="evenodd" d="M129.819 134.041C119.281 119.037 114.099 101.584 116.202 83.6136C121.607 37.4351 173.071 5.3272 231.15 11.8986C289.23 18.47 331.931 61.2322 326.526 107.411C321.121 153.589 269.657 185.697 211.578 179.126C198.213 177.613 185.662 174.185 174.324 169.239L116.314 206.577L141.386 147.503C137.034 143.302 133.157 138.794 129.819 134.041Z"/>
</mask>
<path fill-rule="evenodd" clip-rule="evenodd" d="M129.819 134.041C119.281 119.037 114.099 101.584 116.202 83.6136C121.607 37.4351 173.071 5.3272 231.15 11.8986C289.23 18.47 331.931 61.2322 326.526 107.411C321.121 153.589 269.657 185.697 211.578 179.126C198.213 177.613 185.662 174.185 174.324 169.239L116.314 206.577L141.386 147.503C137.034 143.302 133.157 138.794 129.819 134.041Z" fill="#041C32"/>
<path d="M129.819 134.041L124.081 138.074L124.081 138.074L129.819 134.041ZM174.324 169.239L170.547 163.361L173.71 161.325L177.146 162.825L174.324 169.239ZM116.314 206.577L120.091 212.455L101.01 224.736L109.868 203.866L116.314 206.577ZM141.386 147.503L146.261 142.461L149.71 145.79L147.832 150.214L141.386 147.503ZM123.158 84.4005C121.279 100.45 125.869 116.215 135.556 130.007L124.081 138.074C112.692 121.858 106.919 102.718 109.247 82.8266L123.158 84.4005ZM230.337 18.8511C174.53 12.5369 127.949 43.4616 123.158 84.4005L109.247 82.8266C115.265 31.4086 171.612 -1.88247 231.964 4.94604L230.337 18.8511ZM319.57 106.624C324.362 65.6847 286.143 25.1654 230.337 18.8511L231.964 4.94604C292.316 11.7745 339.5 56.7796 333.482 108.198L319.57 106.624ZM212.392 172.173C268.199 178.487 314.779 147.563 319.57 106.624L333.482 108.198C327.464 159.616 271.116 192.907 210.764 186.078L212.392 172.173ZM177.146 162.825C187.84 167.489 199.713 170.739 212.392 172.173L210.764 186.078C196.712 184.488 183.484 180.88 171.502 175.653L177.146 162.825ZM112.537 200.699L170.547 163.361L178.101 175.117L120.091 212.455L112.537 200.699ZM147.832 150.214L122.759 209.288L109.868 203.866L134.941 144.792L147.832 150.214ZM135.556 130.007C138.628 134.382 142.213 138.554 146.261 142.461L136.511 152.544C131.855 148.05 127.686 143.207 124.081 138.074L135.556 130.007Z" fill="white" mask="url(#path-2-inside-1_33_23)"/>
</g>
<path d="M87.8041 214.396C87.8041 237.418 68.1485 256.081 43.902 256.081C19.6556 256.081 0 237.418 0 214.396C0 191.375 19.6556 172.712 43.902 172.712C68.1485 172.712 87.8041 191.375 87.8041 214.396Z" fill="#041C32"/>
<g filter="url(#filter1_i_33_23)">
<path d="M205.825 71.3117L211.68 53.699L215.419 54.9266L209.564 72.5394L205.825 71.3117ZM222.535 57.2631L222.616 57.5836C222.277 58.1224 221.879 58.6868 221.425 59.2768C220.98 59.8615 220.511 60.4422 220.016 61.019C219.529 61.5985 219.049 62.1445 218.575 62.6571L215.933 61.7899C216.206 61.3449 216.487 60.8759 216.776 60.3828C217.073 59.8924 217.361 59.3992 217.642 58.9035C217.931 58.4104 218.202 57.9294 218.456 57.4605C218.71 56.9916 218.94 56.5549 219.146 56.1503L222.535 57.2631ZM226.824 78.2064L227.172 62.9944L227.064 62.9588C226.97 63.2934 226.829 63.7992 226.639 64.4764C226.461 65.1482 226.263 65.8628 226.047 66.6203C225.831 67.3777 225.623 68.0577 225.422 68.66L222.699 76.852L219.358 75.755L225.213 58.1423L230.303 59.8135L229.999 74.6523L230.071 74.676L238.976 62.6608L244.066 64.332L238.211 81.9448L234.725 80.8003L237.496 72.4637C237.68 71.9096 237.901 71.2737 238.157 70.5562C238.421 69.8413 238.678 69.1638 238.926 68.5238C239.177 67.8758 239.366 67.3898 239.491 67.0658L239.383 67.0302L230.25 79.3311L226.824 78.2064ZM165.876 75.4986L155.534 91.6382L151.276 90.2402L151.964 80.204C151.974 80.0115 151.999 79.7213 152.039 79.3335C152.079 78.9457 152.125 78.5244 152.178 78.0697C152.234 77.607 152.288 77.175 152.341 76.7738C152.405 76.3671 152.462 76.0474 152.513 75.8146C152.414 76.0316 152.266 76.3169 152.068 76.6706C151.878 77.027 151.668 77.4035 151.438 77.8001C151.216 78.1994 151.004 78.5705 150.801 78.9135C150.597 79.2566 150.44 79.5166 150.327 79.6935L144.883 88.1414L140.637 86.7474L141.994 67.6575L145.673 68.8653L144.732 79.2194C144.7 79.5297 144.658 79.8988 144.605 80.3267C144.56 80.7573 144.504 81.2067 144.438 81.6748C144.382 82.1376 144.318 82.5843 144.246 83.015C144.185 83.4403 144.121 83.8069 144.055 84.1146C144.196 83.8226 144.366 83.4864 144.564 83.1059C144.764 82.7175 144.97 82.3263 145.181 81.9324C145.403 81.5332 145.615 81.166 145.815 80.831C146.016 80.496 146.186 80.2266 146.325 80.0229L152.174 70.9998L155.708 72.1602L154.997 82.8702C154.981 83.1055 154.948 83.4198 154.898 83.813C154.858 84.2008 154.808 84.6208 154.746 85.0728C154.685 85.5249 154.619 85.9663 154.547 86.397C154.486 86.8223 154.422 87.1888 154.355 87.4966C154.545 87.1135 154.783 86.6527 155.069 86.1141C155.366 85.5702 155.665 85.0316 155.968 84.4983C156.278 83.9677 156.541 83.5241 156.758 83.1677L162.197 74.2907L165.876 75.4986ZM172.396 97.1745L162.24 93.84L168.095 76.2272L178.252 79.5617L177.234 82.6216L170.817 80.5148L169.532 84.3819L175.502 86.3422L174.485 89.4022L168.515 87.4419L167.005 91.9836L173.422 94.0904L172.396 97.1745ZM191.731 103.523L186.979 101.962L183.737 86.1196L183.629 86.084C183.477 86.6487 183.319 87.2161 183.156 87.7862C182.994 88.3563 182.831 88.9265 182.668 89.4966C182.508 90.0587 182.347 90.6248 182.184 91.1949L179.428 99.4832L176.087 98.3863L181.942 80.7735L186.659 82.3219L189.932 98.0281L190.017 98.0558C190.182 97.5044 190.343 96.9557 190.497 96.4097C190.652 95.8637 190.807 95.3176 190.962 94.7716C191.124 94.2282 191.287 93.6849 191.45 93.1415L194.221 84.8049L197.587 85.9098L191.731 103.523ZM196.397 99.3888L197.398 96.3771L203.875 98.5037L202.874 101.515L196.397 99.3888ZM204.143 107.598L209.998 89.9848L213.738 91.2125L208.908 105.741L216.06 108.09L215.035 111.174L204.143 107.598ZM218.111 112.183L223.966 94.5707L227.705 95.7983L221.85 113.411L218.111 112.183ZM241.933 120.005L237.18 118.444L233.939 102.602L233.83 102.566C233.678 103.131 233.521 103.698 233.358 104.268C233.195 104.838 233.032 105.409 232.869 105.979C232.709 106.541 232.548 107.107 232.385 107.677L229.63 115.965L226.289 114.868L232.144 97.2556L236.86 98.8041L240.134 114.51L240.218 114.538C240.384 113.987 240.544 113.438 240.699 112.892C240.853 112.346 241.008 111.8 241.163 111.254C241.326 110.71 241.489 110.167 241.651 109.624L244.423 101.287L247.788 102.392L241.933 120.005ZM252.801 123.573L258.656 105.96L262.395 107.188L257.565 121.716L264.718 124.065L263.692 127.149L252.801 123.573ZM276.924 131.493L266.768 128.159L272.623 110.546L282.78 113.88L281.762 116.94L275.345 114.834L274.06 118.701L280.03 120.661L279.013 123.721L273.043 121.761L271.533 126.302L277.95 128.409L276.924 131.493ZM290.771 136.039L280.615 132.705L286.47 115.092L296.627 118.427L295.609 121.487L289.192 119.38L287.907 123.247L293.877 125.207L292.86 128.267L286.89 126.307L285.38 130.849L291.797 132.955L290.771 136.039Z" fill="white"/>
</g>
<defs>
<filter id="filter0_d_33_23" x="111.741" y="11.0455" width="219.247" height="203.532" filterUnits="userSpaceOnUse" color-interpolation-filters="sRGB">
<feFlood flood-opacity="0" result="BackgroundImageFix"/>
<feColorMatrix in="SourceAlpha" type="matrix" values="0 0 0 0 0 0 0 0 0 0 0 0 0 0 0 0 0 0 127 0" result="hardAlpha"/>
<feOffset dy="4"/>
<feGaussianBlur stdDeviation="2"/>
<feComposite in2="hardAlpha" operator="out"/>
<feColorMatrix type="matrix" values="0 0 0 0 0 0 0 0 0 0 0 0 0 0 0 0 0 0 0.25 0"/>
<feBlend mode="normal" in2="BackgroundImageFix" result="effect1_dropShadow_33_23"/>
<feBlend mode="normal" in="SourceGraphic" in2="effect1_dropShadow_33_23" result="shape"/>
</filter>
<filter id="filter1_i_33_23" x="136.138" y="34.4447" width="171.53" height="102.595" filterUnits="userSpaceOnUse" color-interpolation-filters="sRGB">
<feFlood flood-opacity="0" result="BackgroundImageFix"/>
<feBlend mode="normal" in="SourceGraphic" in2="BackgroundImageFix" result="shape"/>
<feColorMatrix in="SourceAlpha" type="matrix" values="0 0 0 0 0 0 0 0 0 0 0 0 0 0 0 0 0 0 127 0" result="hardAlpha"/>
<feOffset dy="1"/>
<feGaussianBlur stdDeviation="1.5"/>
<feComposite in2="hardAlpha" operator="arithmetic" k2="-1" k3="1"/>
<feColorMatrix type="matrix" values="0 0 0 0 0 0 0 0 0 0 0 0 0 0 0 0 0 0 0.25 0"/>
<feBlend mode="normal" in2="shape" result="effect1_innerShadow_33_23"/>
</filter>
</defs>
</svg>
