<svg width="400" height="399" viewBox="0 0 400 399" fill="none" xmlns="http://www.w3.org/2000/svg">
<path d="M0 338C0 322.537 12.536 310 28 310H75C90.464 310 103 322.537 103 338V371C103 386.464 90.464 399 75 399H28C12.536 399 0 386.464 0 371V338Z" fill="#041C32"/>
<g filter="url(#filter0_d_33_23)">
<mask id="path-2-inside-1_33_23" fill="white">
<path fill-rule="evenodd" clip-rule="evenodd" d="M152.433 150.424C142.836 132.113 139.585 111.845 144.554 92.0596C157.323 41.2165 219.54 12.8142 283.519 28.6213C347.498 44.4284 389.012 98.4591 376.243 149.302C363.474 200.145 301.257 228.548 237.278 212.741C222.555 209.103 209.022 203.441 197.066 196.26L126.768 229.557L163.405 167.16C159.151 161.83 155.473 156.225 152.433 150.424Z"/>
</mask>
<path fill-rule="evenodd" clip-rule="evenodd" d="M152.433 150.424C142.836 132.113 139.585 111.845 144.554 92.0596C157.323 41.2165 219.54 12.8142 283.519 28.6213C347.498 44.4284 389.012 98.4591 376.243 149.302C363.474 200.145 301.257 228.548 237.278 212.741C222.555 209.103 209.022 203.441 197.066 196.26L126.768 229.557L163.405 167.16C159.151 161.83 155.473 156.225 152.433 150.424Z" fill="#041C32"/>
<path d="M152.433 150.424L146.222 153.682L146.222 153.682L152.433 150.424ZM197.066 196.26L194.08 189.944L197.479 188.334L200.693 190.264L197.066 196.26ZM126.768 229.557L129.754 235.873L109.246 245.587L120.726 226.036L126.768 229.557ZM163.405 167.16L168.891 162.791L171.88 166.537L169.447 170.681L163.405 167.16ZM151.35 93.7386C146.852 111.648 149.734 130.166 158.643 147.165L146.222 153.682C135.938 134.06 132.318 112.042 137.758 90.3806L151.35 93.7386ZM281.814 35.4104C220.055 20.1519 162.834 48.0118 151.35 93.7386L137.758 90.3806C151.813 34.4211 219.025 5.47645 285.224 21.8321L281.814 35.4104ZM369.447 147.623C380.931 101.896 343.573 50.669 281.814 35.4104L285.224 21.8321C351.424 38.1878 397.093 95.0216 383.039 150.981L369.447 147.623ZM238.983 205.951C300.742 221.21 357.963 193.35 369.447 147.623L383.039 150.981C368.984 206.941 301.772 235.885 235.573 219.53L238.983 205.951ZM200.693 190.264C212.046 197.084 224.931 202.48 238.983 205.951L235.573 219.53C220.179 215.726 205.997 209.799 193.438 202.256L200.693 190.264ZM123.782 223.24L194.08 189.944L200.052 202.577L129.754 235.873L123.782 223.24ZM169.447 170.681L132.809 233.078L120.726 226.036L157.364 163.639L169.447 170.681ZM158.643 147.165C161.468 152.556 164.9 157.79 168.891 162.791L157.92 171.529C153.402 165.869 149.478 159.894 146.222 153.682L158.643 147.165Z" fill="white" mask="url(#path-2-inside-1_33_23)"/>
</g>
<path d="M99 254C99 279.957 76.8381 301 49.5 301C22.1619 301 0 279.957 0 254C0 228.043 22.1619 207 49.5 207C76.8381 207 99 228.043 99 254Z" fill="#041C32"/>
<g filter="url(#filter1_i_33_23)">
<path d="M243.842 92.5502L251.269 72.463L255.534 74.0218L248.108 94.109L243.842 92.5502ZM263.651 76.9885L263.732 77.3612C263.32 77.9695 262.84 78.6052 262.293 79.2682C261.759 79.9254 261.195 80.5772 260.602 81.2235C260.018 81.8731 259.443 82.4844 258.878 83.0574L255.864 81.9562C256.196 81.4535 256.538 80.9234 256.89 80.3658C257.251 79.8116 257.603 79.2539 257.945 78.693C258.297 78.1354 258.629 77.5911 258.94 77.06C259.25 76.529 259.532 76.0342 259.785 75.5755L263.651 76.9885ZM267.796 101.305L268.779 83.7753L268.655 83.7301C268.535 84.1123 268.352 84.6903 268.108 85.464C267.876 86.2318 267.621 87.0484 267.343 87.9136C267.065 88.7789 266.798 89.555 266.544 90.242L263.09 99.5849L259.279 98.192L266.706 78.1048L272.512 80.2268L271.593 97.3274L271.676 97.3576L282.404 83.8422L288.21 85.9642L280.784 106.051L276.807 104.598L280.322 95.0904C280.556 94.4584 280.834 93.7335 281.158 92.9159C281.49 92.1016 281.812 91.3301 282.123 90.6016C282.437 89.8639 282.673 89.3107 282.83 88.9418L282.706 88.8966L271.703 102.733L267.796 101.305ZM197.4 96.4272L184.856 114.644L179.999 112.869L181.176 101.321C181.195 101.1 181.235 100.766 181.296 100.32C181.357 99.8746 181.426 99.3906 181.505 98.8682C181.587 98.3367 181.666 97.8406 181.743 97.3799C181.832 96.9135 181.91 96.547 181.977 96.2804C181.855 96.5268 181.673 96.8502 181.431 97.2506C181.199 97.6542 180.942 98.0804 180.662 98.529C180.391 98.9809 180.131 99.4008 179.884 99.7886C179.636 100.176 179.445 100.47 179.308 100.67L172.707 110.204L167.864 108.434L170.158 86.471L174.355 88.0047L172.874 99.9092C172.826 100.266 172.762 100.69 172.685 101.181C172.616 101.676 172.535 102.192 172.44 102.73C172.358 103.261 172.268 103.774 172.168 104.268C172.082 104.756 171.994 105.176 171.905 105.528C172.08 105.197 172.289 104.816 172.531 104.385C172.777 103.944 173.03 103.501 173.288 103.055C173.56 102.603 173.817 102.188 174.061 101.809C174.305 101.43 174.512 101.126 174.68 100.897L181.77 90.715L185.802 92.1883L184.572 104.512C184.545 104.783 184.495 105.144 184.421 105.595C184.361 106.041 184.286 106.524 184.199 107.043C184.111 107.562 184.017 108.068 183.918 108.562C183.831 109.05 183.744 109.47 183.655 109.823C183.889 109.388 184.181 108.866 184.531 108.256C184.894 107.64 185.26 107.03 185.629 106.427C186.007 105.827 186.328 105.325 186.591 104.922L193.204 94.8936L197.4 96.4272ZM204.09 121.674L192.505 117.44L199.931 97.3525L211.516 101.586L210.226 105.076L202.906 102.401L201.276 106.811L208.086 109.301L206.796 112.79L199.986 110.301L198.071 115.481L205.39 118.156L204.09 121.674ZM226.144 129.734L220.724 127.753L217.591 109.359L217.467 109.314C217.27 109.959 217.067 110.607 216.858 111.259C216.648 111.91 216.439 112.561 216.229 113.212C216.023 113.854 215.815 114.501 215.606 115.152L212.111 124.605L208.3 123.212L215.726 103.125L221.106 105.091L224.28 123.329L224.376 123.364C224.588 122.735 224.794 122.108 224.993 121.484C225.193 120.86 225.392 120.237 225.591 119.613C225.8 118.993 226.008 118.372 226.217 117.752L229.732 108.244L233.571 109.647L226.144 129.734ZM231.683 125.145L232.952 121.711L240.341 124.411L239.071 127.846L231.683 125.145ZM240.302 134.908L247.728 114.821L251.993 116.38L245.867 132.95L254.026 135.932L252.725 139.449L240.302 134.908ZM256.234 140.731L263.66 120.644L267.925 122.203L260.499 142.29L256.234 140.731ZM283.407 150.662L277.986 148.681L274.853 130.287L274.73 130.242C274.533 130.887 274.329 131.536 274.12 132.187C273.91 132.838 273.701 133.489 273.491 134.14C273.285 134.783 273.077 135.429 272.868 136.08L269.373 145.533L265.562 144.14L272.988 124.053L278.368 126.019L281.542 144.257L281.639 144.292C281.85 143.663 282.056 143.036 282.256 142.412C282.455 141.789 282.654 141.165 282.854 140.541C283.062 139.921 283.271 139.3 283.479 138.68L286.994 129.172L290.833 130.575L283.407 150.662ZM295.803 155.193L303.229 135.106L307.494 136.664L301.368 153.234L309.527 156.216L308.227 159.733L295.803 155.193ZM323.32 165.25L311.735 161.016L319.161 140.928L330.746 145.162L329.456 148.652L322.136 145.977L320.506 150.387L327.316 152.877L326.026 156.366L319.215 153.877L317.3 159.057L324.62 161.732L323.32 165.25ZM339.114 171.022L327.53 166.788L334.956 146.701L346.54 150.935L345.25 154.425L337.931 151.75L336.3 156.16L343.111 158.649L341.82 162.139L335.01 159.65L333.095 164.83L340.414 167.505L339.114 171.022Z" fill="white"/>
</g>
<defs>
<filter id="filter0_d_33_23" x="122.768" y="24.249" width="259.783" height="213.308" filterUnits="userSpaceOnUse" color-interpolation-filters="sRGB">
<feFlood flood-opacity="0" result="BackgroundImageFix"/>
<feColorMatrix in="SourceAlpha" type="matrix" values="0 0 0 0 0 0 0 0 0 0 0 0 0 0 0 0 0 0 127 0" result="hardAlpha"/>
<feOffset dy="4"/>
<feGaussianBlur stdDeviation="2"/>
<feComposite in2="hardAlpha" operator="out"/>
<feColorMatrix type="matrix" values="0 0 0 0 0 0 0 0 0 0 0 0 0 0 0 0 0 0 0.25 0"/>
<feBlend mode="normal" in2="BackgroundImageFix" result="effect1_dropShadow_33_23"/>
<feBlend mode="normal" in="SourceGraphic" in2="effect1_dropShadow_33_23" result="shape"/>
</filter>
<filter id="filter1_i_33_23" x="162.732" y="48.015" width="198.025" height="124.007" filterUnits="userSpaceOnUse" color-interpolation-filters="sRGB">
<feFlood flood-opacity="0" result="BackgroundImageFix"/>
<feBlend mode="normal" in="SourceGraphic" in2="BackgroundImageFix" result="shape"/>
<feColorMatrix in="SourceAlpha" type="matrix" values="0 0 0 0 0 0 0 0 0 0 0 0 0 0 0 0 0 0 127 0" result="hardAlpha"/>
<feOffset dy="1"/>
<feGaussianBlur stdDeviation="1.5"/>
<feComposite in2="hardAlpha" operator="arithmetic" k2="-1" k3="1"/>
<feColorMatrix type="matrix" values="0 0 0 0 0 0 0 0 0 0 0 0 0 0 0 0 0 0 0.25 0"/>
<feBlend mode="normal" in2="shape" result="effect1_innerShadow_33_23"/>
</filter>
</defs>
</svg>
